<?xml version="1.0" standalone="no"?>
<svg xmlns:xlink="http://www.w3.org/1999/xlink" id="wave" style="transform:rotate(0deg); transition: 0.3s" viewBox="0 0 1440 490" version="1.1" xmlns="http://www.w3.org/2000/svg"><defs><linearGradient id="sw-gradient-0" x1="0" x2="0" y1="1" y2="0"><stop stop-color="rgba(243, 169.68, 62, 1)" offset="0%"/><stop stop-color="rgba(255, 179, 11, 1)" offset="100%"/></linearGradient></defs><path style="transform:translate(0, 0px); opacity:1" fill="url(#sw-gradient-0)" d="M0,196L34.3,163.3C68.6,131,137,65,206,89.8C274.3,114,343,229,411,285.8C480,343,549,343,617,302.2C685.7,261,754,180,823,122.5C891.4,65,960,33,1029,81.7C1097.1,131,1166,261,1234,269.5C1302.9,278,1371,163,1440,147C1508.6,131,1577,212,1646,261.3C1714.3,310,1783,327,1851,294C1920,261,1989,180,2057,130.7C2125.7,82,2194,65,2263,114.3C2331.4,163,2400,278,2469,285.8C2537.1,294,2606,196,2674,204.2C2742.9,212,2811,327,2880,359.3C2948.6,392,3017,343,3086,302.2C3154.3,261,3223,229,3291,236.8C3360,245,3429,294,3497,261.3C3565.7,229,3634,114,3703,65.3C3771.4,16,3840,33,3909,57.2C3977.1,82,4046,114,4114,163.3C4182.9,212,4251,278,4320,253.2C4388.6,229,4457,114,4526,98C4594.3,82,4663,163,4731,179.7C4800,196,4869,147,4903,122.5L4937.1,98L4937.1,490L4902.9,490C4868.6,490,4800,490,4731,490C4662.9,490,4594,490,4526,490C4457.1,490,4389,490,4320,490C4251.4,490,4183,490,4114,490C4045.7,490,3977,490,3909,490C3840,490,3771,490,3703,490C3634.3,490,3566,490,3497,490C3428.6,490,3360,490,3291,490C3222.9,490,3154,490,3086,490C3017.1,490,2949,490,2880,490C2811.4,490,2743,490,2674,490C2605.7,490,2537,490,2469,490C2400,490,2331,490,2263,490C2194.3,490,2126,490,2057,490C1988.6,490,1920,490,1851,490C1782.9,490,1714,490,1646,490C1577.1,490,1509,490,1440,490C1371.4,490,1303,490,1234,490C1165.7,490,1097,490,1029,490C960,490,891,490,823,490C754.3,490,686,490,617,490C548.6,490,480,490,411,490C342.9,490,274,490,206,490C137.1,490,69,490,34,490L0,490Z"/></svg>