<?xml version="1.0" standalone="no"?>
<svg xmlns:xlink="http://www.w3.org/1999/xlink" id="wave" style="transform:rotate(180deg); transition: 0.3s" viewBox="0 0 1440 100" version="1.1" xmlns="http://www.w3.org/2000/svg"><defs><linearGradient id="sw-gradient-0" x1="0" x2="0" y1="1" y2="0"><stop stop-color="rgba(175, 191, 33, 1)" offset="0%"/><stop stop-color="rgba(15, 161, 208, 1)" offset="100%"/></linearGradient></defs><path style="transform:translate(0, 0px); opacity:1" fill="url(#sw-gradient-0)" d="M0,10L30,20C60,30,120,50,180,61.7C240,73,300,77,360,76.7C420,77,480,73,540,75C600,77,660,83,720,83.3C780,83,840,77,900,66.7C960,57,1020,43,1080,38.3C1140,33,1200,37,1260,35C1320,33,1380,27,1440,20C1500,13,1560,7,1620,13.3C1680,20,1740,40,1800,55C1860,70,1920,80,1980,73.3C2040,67,2100,43,2160,36.7C2220,30,2280,40,2340,51.7C2400,63,2460,77,2520,75C2580,73,2640,57,2700,43.3C2760,30,2820,20,2880,18.3C2940,17,3000,23,3060,25C3120,27,3180,23,3240,25C3300,27,3360,33,3420,36.7C3480,40,3540,40,3600,43.3C3660,47,3720,53,3780,46.7C3840,40,3900,20,3960,25C4020,30,4080,60,4140,60C4200,60,4260,30,4290,15L4320,0L4320,100L4290,100C4260,100,4200,100,4140,100C4080,100,4020,100,3960,100C3900,100,3840,100,3780,100C3720,100,3660,100,3600,100C3540,100,3480,100,3420,100C3360,100,3300,100,3240,100C3180,100,3120,100,3060,100C3000,100,2940,100,2880,100C2820,100,2760,100,2700,100C2640,100,2580,100,2520,100C2460,100,2400,100,2340,100C2280,100,2220,100,2160,100C2100,100,2040,100,1980,100C1920,100,1860,100,1800,100C1740,100,1680,100,1620,100C1560,100,1500,100,1440,100C1380,100,1320,100,1260,100C1200,100,1140,100,1080,100C1020,100,960,100,900,100C840,100,780,100,720,100C660,100,600,100,540,100C480,100,420,100,360,100C300,100,240,100,180,100C120,100,60,100,30,100L0,100Z"/></svg>