<?xml version="1.0" standalone="no"?>
<svg xmlns:xlink="http://www.w3.org/1999/xlink" id="wave" style="transform:rotate(180deg); transition: 0.3s" viewBox="0 0 1440 100" version="1.1" xmlns="http://www.w3.org/2000/svg"><defs><linearGradient id="sw-gradient-0" x1="0" x2="0" y1="1" y2="0"><stop stop-color="rgba(175, 191, 33, 1)" offset="0%"/><stop stop-color="rgba(15, 161, 208, 1)" offset="100%"/></linearGradient></defs><path style="transform:translate(0, 0px); opacity:1" fill="url(#sw-gradient-0)" d="M0,20L30,30C60,40,120,60,180,70C240,80,300,80,360,81.7C420,83,480,87,540,80C600,73,660,57,720,53.3C780,50,840,60,900,58.3C960,57,1020,43,1080,38.3C1140,33,1200,37,1260,43.3C1320,50,1380,60,1440,60C1500,60,1560,50,1620,45C1680,40,1740,40,1800,45C1860,50,1920,60,1980,65C2040,70,2100,70,2160,61.7C2220,53,2280,37,2340,26.7C2400,17,2460,13,2520,16.7C2580,20,2640,30,2700,30C2760,30,2820,20,2880,26.7C2940,33,3000,57,3060,65C3120,73,3180,67,3240,61.7C3300,57,3360,53,3420,43.3C3480,33,3540,17,3600,15C3660,13,3720,27,3780,26.7C3840,27,3900,13,3960,10C4020,7,4080,13,4140,28.3C4200,43,4260,67,4290,78.3L4320,90L4320,100L4290,100C4260,100,4200,100,4140,100C4080,100,4020,100,3960,100C3900,100,3840,100,3780,100C3720,100,3660,100,3600,100C3540,100,3480,100,3420,100C3360,100,3300,100,3240,100C3180,100,3120,100,3060,100C3000,100,2940,100,2880,100C2820,100,2760,100,2700,100C2640,100,2580,100,2520,100C2460,100,2400,100,2340,100C2280,100,2220,100,2160,100C2100,100,2040,100,1980,100C1920,100,1860,100,1800,100C1740,100,1680,100,1620,100C1560,100,1500,100,1440,100C1380,100,1320,100,1260,100C1200,100,1140,100,1080,100C1020,100,960,100,900,100C840,100,780,100,720,100C660,100,600,100,540,100C480,100,420,100,360,100C300,100,240,100,180,100C120,100,60,100,30,100L0,100Z"/></svg>