<?xml version="1.0" standalone="no"?>
<svg xmlns:xlink="http://www.w3.org/1999/xlink" id="wave" style="transform:rotate(180deg); transition: 0.3s" viewBox="0 0 1440 100" version="1.1" xmlns="http://www.w3.org/2000/svg"><defs><linearGradient id="sw-gradient-0" x1="0" x2="0" y1="1" y2="0"><stop stop-color="rgba(175, 191, 33, 1)" offset="0%"/><stop stop-color="rgba(15, 161, 208, 1)" offset="100%"/></linearGradient></defs><path style="transform:translate(0, 0px); opacity:1" fill="url(#sw-gradient-0)" d="M0,70L30,66.7C60,63,120,57,180,58.3C240,60,300,70,360,71.7C420,73,480,67,540,63.3C600,60,660,60,720,58.3C780,57,840,53,900,55C960,57,1020,63,1080,60C1140,57,1200,43,1260,40C1320,37,1380,43,1440,51.7C1500,60,1560,70,1620,61.7C1680,53,1740,27,1800,28.3C1860,30,1920,60,1980,75C2040,90,2100,90,2160,85C2220,80,2280,70,2340,60C2400,50,2460,40,2520,41.7C2580,43,2640,57,2700,61.7C2760,67,2820,63,2880,56.7C2940,50,3000,40,3060,33.3C3120,27,3180,23,3240,20C3300,17,3360,13,3420,16.7C3480,20,3540,30,3600,40C3660,50,3720,60,3780,65C3840,70,3900,70,3960,66.7C4020,63,4080,57,4140,58.3C4200,60,4260,70,4290,75L4320,80L4320,100L4290,100C4260,100,4200,100,4140,100C4080,100,4020,100,3960,100C3900,100,3840,100,3780,100C3720,100,3660,100,3600,100C3540,100,3480,100,3420,100C3360,100,3300,100,3240,100C3180,100,3120,100,3060,100C3000,100,2940,100,2880,100C2820,100,2760,100,2700,100C2640,100,2580,100,2520,100C2460,100,2400,100,2340,100C2280,100,2220,100,2160,100C2100,100,2040,100,1980,100C1920,100,1860,100,1800,100C1740,100,1680,100,1620,100C1560,100,1500,100,1440,100C1380,100,1320,100,1260,100C1200,100,1140,100,1080,100C1020,100,960,100,900,100C840,100,780,100,720,100C660,100,600,100,540,100C480,100,420,100,360,100C300,100,240,100,180,100C120,100,60,100,30,100L0,100Z"/></svg>