<?xml version="1.0" standalone="no"?>
<svg xmlns:xlink="http://www.w3.org/1999/xlink" id="wave" style="transform:rotate(180deg); transition: 0.3s" viewBox="0 0 1440 100" version="1.1" xmlns="http://www.w3.org/2000/svg"><defs><linearGradient id="sw-gradient-0" x1="0" x2="0" y1="1" y2="0"><stop stop-color="rgba(14.717, 160.613, 207.508, 1)" offset="0%"/><stop stop-color="rgba(175, 191, 33, 1)" offset="100%"/></linearGradient></defs><path style="transform:translate(0, 0px); opacity:1" fill="url(#sw-gradient-0)" d="M0,70L80,66.7C160,63,320,57,480,50C640,43,800,37,960,43.3C1120,50,1280,70,1440,68.3C1600,67,1760,43,1920,30C2080,17,2240,13,2400,18.3C2560,23,2720,37,2880,45C3040,53,3200,57,3360,58.3C3520,60,3680,60,3840,58.3C4000,57,4160,53,4320,45C4480,37,4640,23,4800,23.3C4960,23,5120,37,5280,50C5440,63,5600,77,5760,68.3C5920,60,6080,30,6240,15C6400,0,6560,0,6720,15C6880,30,7040,60,7200,68.3C7360,77,7520,63,7680,58.3C7840,53,8000,57,8160,51.7C8320,47,8480,33,8640,38.3C8800,43,8960,67,9120,65C9280,63,9440,37,9600,33.3C9760,30,9920,50,10080,60C10240,70,10400,70,10560,71.7C10720,73,10880,77,11040,66.7C11200,57,11360,33,11440,21.7L11520,10L11520,100L11440,100C11360,100,11200,100,11040,100C10880,100,10720,100,10560,100C10400,100,10240,100,10080,100C9920,100,9760,100,9600,100C9440,100,9280,100,9120,100C8960,100,8800,100,8640,100C8480,100,8320,100,8160,100C8000,100,7840,100,7680,100C7520,100,7360,100,7200,100C7040,100,6880,100,6720,100C6560,100,6400,100,6240,100C6080,100,5920,100,5760,100C5600,100,5440,100,5280,100C5120,100,4960,100,4800,100C4640,100,4480,100,4320,100C4160,100,4000,100,3840,100C3680,100,3520,100,3360,100C3200,100,3040,100,2880,100C2720,100,2560,100,2400,100C2240,100,2080,100,1920,100C1760,100,1600,100,1440,100C1280,100,1120,100,960,100C800,100,640,100,480,100C320,100,160,100,80,100L0,100Z"/></svg>