<?xml version="1.0" standalone="no"?>
<svg xmlns:xlink="http://www.w3.org/1999/xlink" id="wave" style="transform:rotate(180deg); transition: 0.3s" viewBox="0 0 1440 100" version="1.1" xmlns="http://www.w3.org/2000/svg"><defs><linearGradient id="sw-gradient-0" x1="0" x2="0" y1="1" y2="0"><stop stop-color="rgba(14.717, 160.613, 207.508, 1)" offset="0%"/><stop stop-color="rgba(175, 191, 33, 1)" offset="100%"/></linearGradient></defs><path style="transform:translate(0, 0px); opacity:1" fill="url(#sw-gradient-0)" d="M0,70L80,71.7C160,73,320,77,480,80C640,83,800,87,960,88.3C1120,90,1280,90,1440,80C1600,70,1760,50,1920,50C2080,50,2240,70,2400,71.7C2560,73,2720,57,2880,51.7C3040,47,3200,53,3360,55C3520,57,3680,53,3840,51.7C4000,50,4160,50,4320,56.7C4480,63,4640,77,4800,73.3C4960,70,5120,50,5280,38.3C5440,27,5600,23,5760,25C5920,27,6080,33,6240,41.7C6400,50,6560,60,6720,55C6880,50,7040,30,7200,28.3C7360,27,7520,43,7680,53.3C7840,63,8000,67,8160,58.3C8320,50,8480,30,8640,23.3C8800,17,8960,23,9120,26.7C9280,30,9440,30,9600,33.3C9760,37,9920,43,10080,46.7C10240,50,10400,50,10560,56.7C10720,63,10880,77,11040,76.7C11200,77,11360,63,11440,56.7L11520,50L11520,100L11440,100C11360,100,11200,100,11040,100C10880,100,10720,100,10560,100C10400,100,10240,100,10080,100C9920,100,9760,100,9600,100C9440,100,9280,100,9120,100C8960,100,8800,100,8640,100C8480,100,8320,100,8160,100C8000,100,7840,100,7680,100C7520,100,7360,100,7200,100C7040,100,6880,100,6720,100C6560,100,6400,100,6240,100C6080,100,5920,100,5760,100C5600,100,5440,100,5280,100C5120,100,4960,100,4800,100C4640,100,4480,100,4320,100C4160,100,4000,100,3840,100C3680,100,3520,100,3360,100C3200,100,3040,100,2880,100C2720,100,2560,100,2400,100C2240,100,2080,100,1920,100C1760,100,1600,100,1440,100C1280,100,1120,100,960,100C800,100,640,100,480,100C320,100,160,100,80,100L0,100Z"/></svg>