<?xml version="1.0" standalone="no"?>
<svg xmlns:xlink="http://www.w3.org/1999/xlink" id="wave" style="transform:rotate(180deg); transition: 0.3s" viewBox="0 0 1440 100" version="1.1" xmlns="http://www.w3.org/2000/svg"><defs><linearGradient id="sw-gradient-0" x1="0" x2="0" y1="1" y2="0"><stop stop-color="rgba(175, 191, 33, 1)" offset="0%"/><stop stop-color="rgba(15, 161, 208, 1)" offset="100%"/></linearGradient></defs><path style="transform:translate(0, 0px); opacity:1" fill="url(#sw-gradient-0)" d="M0,60L30,55C60,50,120,40,180,41.7C240,43,300,57,360,65C420,73,480,77,540,70C600,63,660,47,720,46.7C780,47,840,63,900,70C960,77,1020,73,1080,68.3C1140,63,1200,57,1260,48.3C1320,40,1380,30,1440,23.3C1500,17,1560,13,1620,13.3C1680,13,1740,17,1800,16.7C1860,17,1920,13,1980,18.3C2040,23,2100,37,2160,38.3C2220,40,2280,30,2340,25C2400,20,2460,20,2520,26.7C2580,33,2640,47,2700,46.7C2760,47,2820,33,2880,30C2940,27,3000,33,3060,30C3120,27,3180,13,3240,8.3C3300,3,3360,7,3420,10C3480,13,3540,17,3600,16.7C3660,17,3720,13,3780,21.7C3840,30,3900,50,3960,61.7C4020,73,4080,77,4140,73.3C4200,70,4260,60,4290,55L4320,50L4320,100L4290,100C4260,100,4200,100,4140,100C4080,100,4020,100,3960,100C3900,100,3840,100,3780,100C3720,100,3660,100,3600,100C3540,100,3480,100,3420,100C3360,100,3300,100,3240,100C3180,100,3120,100,3060,100C3000,100,2940,100,2880,100C2820,100,2760,100,2700,100C2640,100,2580,100,2520,100C2460,100,2400,100,2340,100C2280,100,2220,100,2160,100C2100,100,2040,100,1980,100C1920,100,1860,100,1800,100C1740,100,1680,100,1620,100C1560,100,1500,100,1440,100C1380,100,1320,100,1260,100C1200,100,1140,100,1080,100C1020,100,960,100,900,100C840,100,780,100,720,100C660,100,600,100,540,100C480,100,420,100,360,100C300,100,240,100,180,100C120,100,60,100,30,100L0,100Z"/></svg>